<svg version="1.1" id="Layer_1" xmlns="http://www.w3.org/2000/svg" xmlns:xlink="http://www.w3.org/1999/xlink" x="0px" y="0px"
	 width="100%" viewBox="0 0 1024 1024" enable-background="new 0 0 1024 1024" xml:space="preserve">
<path fill="#000000" opacity="1.000000" stroke="none" 
	d="
M518.742676,554.751709 
	C512.247131,551.708313 512.756958,545.865906 511.367523,539.782410 
	C508.356232,543.034424 505.446075,546.388550 502.298401,549.502686 
	C500.176056,551.602417 497.830688,553.522522 495.388947,555.244934 
	C489.181183,559.623962 482.521973,562.806519 474.924500,559.082520 
	C467.234222,555.313110 466.221558,547.890869 465.713776,540.405029 
	C465.604492,538.793884 465.697815,537.168884 465.697815,534.615784 
	C460.467102,539.299194 456.023132,543.442505 451.398376,547.373230 
	C446.687592,551.377075 441.697388,554.996826 435.588959,556.668457 
	C427.320770,558.931213 421.023224,554.805542 420.607086,546.277649 
	C420.038452,534.625366 424.007874,524.028748 429.362122,513.916260 
	C430.671783,511.442719 432.942505,510.284637 435.670593,511.791046 
	C438.425568,513.312317 438.394501,515.749207 437.177216,518.277466 
	C434.138580,524.588684 431.150696,530.934631 429.794220,537.853699 
	C429.136139,541.210632 427.560577,545.440552 430.493317,547.778870 
	C433.691956,550.329163 437.094269,547.086487 439.974579,545.390259 
	C450.756226,539.040771 459.048950,529.879150 467.233154,520.631836 
	C467.667236,520.141357 468.091858,519.546631 468.258514,518.929688 
	C470.855896,509.314941 473.955078,499.856079 477.570068,490.096405 
	C470.605072,489.666077 464.266205,491.039490 457.885590,491.498810 
	C454.700684,491.728088 451.908722,491.543945 451.387573,487.909729 
	C450.814697,483.914276 453.729767,482.860809 457.020691,482.559113 
	C463.480133,481.966949 469.932007,481.102203 476.403839,480.906738 
	C480.257385,480.790375 482.344208,479.642517 483.829529,475.893707 
	C486.710144,468.623230 490.246307,461.609406 494.587830,455.058960 
	C495.593567,453.541534 496.686249,452.030243 497.986816,450.772461 
	C499.651459,449.162598 501.696655,448.397156 503.849884,449.949829 
	C506.057404,451.541718 505.808319,453.776245 504.740845,455.776642 
	C501.840302,461.212067 498.708801,466.523743 495.752167,471.930054 
	C494.575745,474.081177 493.618744,476.352295 492.088104,479.562378 
	C499.393127,479.142731 505.759064,478.818665 512.119202,478.404724 
	C544.361450,476.306335 576.603638,474.162201 608.920349,476.800385 
	C611.388000,477.001831 613.908630,477.451416 616.237976,478.263672 
	C621.139099,479.972656 621.888245,483.667847 617.902344,488.371826 
	C614.465271,483.660034 609.288147,484.267273 604.342896,484.178223 
	C579.516541,483.731293 554.710327,484.080475 529.933411,485.935791 
	C517.484070,486.868011 505.014709,487.540253 492.550415,488.261047 
	C490.321259,488.389954 488.204987,488.344299 487.217682,490.930115 
	C481.408600,506.144989 474.385315,521.034058 474.163269,537.781921 
	C474.097870,542.715027 473.273590,548.545837 478.613434,551.179382 
	C483.767639,553.721436 488.384399,550.243408 492.272430,547.166870 
	C503.439331,538.330627 513.193665,528.140259 520.472717,515.773193 
	C521.659912,513.756165 522.683228,511.521088 525.384155,511.232147 
	C528.779785,510.868896 530.930054,514.071045 529.549072,517.732056 
	C527.434875,523.336914 524.918030,528.791870 522.867432,534.418091 
	C521.518188,538.120056 520.335815,541.982544 521.736084,546.156860 
	C524.796936,546.756958 526.888245,544.948914 529.046997,543.540283 
	C538.673096,537.259216 544.553101,527.648376 551.067627,518.605530 
	C552.234436,516.985840 553.340210,515.309937 554.635620,513.798279 
	C556.089844,512.101135 557.910400,511.527954 559.965088,512.840332 
	C561.909668,514.082397 562.538147,515.763000 561.679932,517.983582 
	C559.638428,523.265930 557.641663,528.564636 556.818726,534.214417 
	C556.722961,534.871765 556.440979,535.518860 556.441833,536.170532 
	C556.445679,539.256531 555.209167,542.953064 558.432007,544.924622 
	C561.414856,546.749451 564.253784,544.381897 566.673706,542.847961 
	C576.530701,536.599915 583.728394,527.539124 591.341187,518.935730 
	C592.700256,517.399719 591.831421,515.701721 591.415588,514.181946 
	C590.581726,511.134613 591.178894,508.732391 594.326355,507.795227 
	C597.431152,506.870728 599.038452,509.144409 599.880676,511.581360 
	C601.655701,516.717651 603.125854,521.959290 604.727234,527.177856 
	C607.408997,526.730957 608.385376,524.823914 609.686401,523.430908 
	C615.943359,516.731812 622.137939,509.974762 629.203857,504.095642 
	C631.506287,502.179901 633.760132,500.192139 636.784668,499.409698 
	C639.079285,498.816071 640.784607,499.601227 641.779175,501.621094 
	C642.902832,503.903320 641.625427,505.126648 639.711121,506.424866 
	C628.143860,514.269165 619.509583,525.189453 609.981262,535.167480 
	C609.454895,535.718689 609.009766,536.617798 609.007446,537.356445 
	C608.987976,543.652527 617.630676,549.986145 623.705811,548.128357 
	C628.408936,546.690186 632.531067,544.067322 636.131653,540.845398 
	C644.434753,533.415588 652.991577,526.170166 657.640015,515.567932 
	C658.897522,512.699829 661.016541,510.063171 664.620300,511.878143 
	C668.317383,513.740112 666.911255,516.834473 665.673767,519.680908 
	C663.018311,525.788757 660.277161,531.870239 658.960693,538.455139 
	C658.668640,539.915894 658.338562,541.395813 658.295715,542.874756 
	C658.138672,548.291565 660.037842,549.683655 664.943909,547.497192 
	C673.774597,543.561646 680.884460,537.268677 687.480835,530.370178 
	C690.357483,527.361694 693.008057,524.138000 695.794189,521.041687 
	C697.014465,519.685608 698.294617,517.962646 700.388184,519.312561 
	C702.425171,520.625977 702.573975,522.680359 701.274292,524.564941 
	C692.087280,537.887085 681.618408,549.965698 666.173035,556.176697 
	C656.931702,559.892944 650.002991,554.681824 649.691711,544.592041 
	C649.645630,543.098816 649.685242,541.602966 649.685242,539.175720 
	C646.423889,542.069092 643.687317,544.502563 640.944458,546.928894 
	C637.056702,550.367859 632.917969,553.429016 628.050781,555.368469 
	C618.435852,559.199707 611.494812,557.273376 605.195923,549.043030 
	C604.299866,547.872253 603.399109,546.705017 601.831360,544.665588 
	C588.634033,561.277283 575.833984,577.405090 568.604919,597.178101 
	C565.054504,596.565430 564.634033,594.105103 564.566528,591.535583 
	C564.481018,588.279785 565.698242,585.341614 567.126526,582.492065 
	C574.330566,568.118958 583.236633,554.803711 593.689880,542.675171 
	C598.628113,536.945435 597.390625,532.119263 594.391785,526.046997 
	C588.896484,533.023499 583.174072,539.254578 576.900879,544.962280 
	C573.296143,548.242188 569.380005,551.039734 564.796692,552.771667 
	C556.370850,555.955627 550.403259,552.818298 548.251587,544.016113 
	C547.750000,541.964478 547.669495,539.809875 547.336121,537.248108 
	C542.118591,542.558167 537.501770,548.026672 531.333862,551.714783 
	C527.582031,553.958191 523.755981,556.006775 518.742676,554.751709 
z"/>
<path fill="#000000" opacity="1.000000" stroke="none" 
	d="
M347.279053,454.409119 
	C349.627869,449.019623 351.626373,443.885956 354.086334,438.983856 
	C355.543518,436.080078 357.865723,433.437042 361.660889,435.492584 
	C365.368591,437.500763 364.532379,440.590088 363.022003,443.701141 
	C351.952240,466.502686 342.460785,489.934662 334.983429,514.166382 
	C334.502411,515.725220 333.644348,517.219482 334.107422,519.441772 
	C339.210449,519.896790 344.290436,518.937866 349.149017,517.617798 
	C384.718903,507.953583 415.311218,490.602905 436.747253,459.612335 
	C441.457855,452.802155 444.418518,445.239227 443.790192,436.648895 
	C443.362549,430.802155 440.957397,426.107544 436.183746,422.683319 
	C428.024933,416.830811 418.650024,414.831421 408.875397,414.344330 
	C389.414886,413.374542 370.369232,415.929260 351.653046,421.267426 
	C327.809296,428.067993 305.076935,437.306763 284.526184,451.426849 
	C281.208282,453.706512 278.259979,456.386353 275.571106,459.362579 
	C274.329010,460.737427 273.252625,462.211548 273.269440,464.201843 
	C273.281555,465.635620 273.892273,467.440887 271.763855,467.859100 
	C269.965546,468.212433 268.511230,467.180115 267.403564,465.897522 
	C265.185272,463.328674 265.302490,460.468048 266.564026,457.479614 
	C268.805939,452.168854 273.048950,448.640961 277.521179,445.436554 
	C300.317047,429.103241 325.939819,419.060333 352.802429,411.780365 
	C366.996063,407.933777 381.443298,405.668457 396.107635,405.122528 
	C406.947296,404.719025 417.743103,405.661469 428.194611,408.861603 
	C449.218323,415.298767 457.704010,433.124725 449.719208,453.701538 
	C444.500671,467.149750 435.265045,477.636139 424.651001,486.871368 
	C400.579163,507.816223 373.251221,522.371338 341.404633,527.643127 
	C341.152252,529.250061 342.611786,529.593079 343.400269,530.196533 
	C361.525421,544.067566 379.660583,557.931519 399.934601,568.644836 
	C413.053955,575.577515 426.872192,580.188477 441.811005,580.630005 
	C451.490509,580.916138 460.677399,578.939270 468.805359,573.271179 
	C469.607788,572.711609 470.562103,572.352234 471.481323,571.989563 
	C471.722137,571.894592 472.095795,572.136353 472.834656,572.342224 
	C472.611115,575.735718 469.850342,577.285156 467.581482,578.768677 
	C454.585938,587.265503 440.490234,590.130249 425.165131,586.818542 
	C402.813293,581.988403 383.854034,570.352051 365.594513,557.339417 
	C355.286774,549.993591 345.210236,542.323608 335.008453,534.828430 
	C333.435760,533.673035 331.749054,532.672852 329.718323,531.340637 
	C326.284546,539.523376 324.819214,547.690369 322.856354,555.697144 
	C320.797333,564.096130 319.151031,572.577576 318.217560,581.195801 
	C317.889923,584.220825 317.859283,588.442200 313.448303,587.935791 
	C309.099335,587.436462 308.436951,583.427246 308.918823,579.753967 
	C310.197174,570.009644 312.711426,560.514832 315.226593,551.033264 
	C316.975220,544.441406 318.724609,537.843323 320.750824,531.334290 
	C321.712799,528.244019 321.233704,526.398376 318.140228,525.006165 
	C315.272095,523.715393 312.505127,522.079041 309.957642,520.230835 
	C307.429840,518.396851 304.290710,516.113037 306.509918,512.517395 
	C308.483521,509.319702 311.789124,510.683929 314.642822,511.761353 
	C318.028076,513.039429 320.933746,515.447998 325.123993,516.340332 
	C332.368927,495.678070 339.183685,475.013672 347.279053,454.409119 
z"/>
<path fill="#000000" opacity="1.000000" stroke="none" 
	d="
M444.287720,496.172455 
	C443.339539,497.576660 442.647491,498.727020 441.754700,499.691467 
	C440.534851,501.009308 439.030579,501.610321 437.298035,500.596283 
	C435.540375,499.567535 434.687653,498.018921 435.164612,496.002350 
	C435.823761,493.215485 437.268402,490.791931 438.993622,488.532043 
	C440.768738,486.206818 442.956207,485.447693 445.438721,487.271057 
	C447.735626,488.958191 447.726654,491.114563 446.116425,493.357330 
	C445.536591,494.164948 445.006927,495.008545 444.287720,496.172455 
z"/>
<path fill="#000000" opacity="1.000000" stroke="none" 
	d="
M676.809265,491.547607 
	C675.087097,494.244568 673.549011,496.619659 671.936768,498.943298 
	C670.824829,500.545807 669.421448,501.746490 667.320007,500.770874 
	C665.263062,499.815979 664.319946,498.048553 664.782532,495.860046 
	C665.487366,492.525208 667.096619,489.560303 669.779968,487.435730 
	C672.922424,484.947510 675.746643,486.505707 676.809265,491.547607 
z"/>
</svg>